PathFileType	4	(X/Y/Z)	C:\Users\Basilio\Documents\Thesis Gigler\squatting_fais\c3dfiles\075\SJ_pre2\markers_experimental.trc
DataRate	CameraRate	NumFrames	NumMarkers	Units	OrigDataRate	OrigDataStartFrame	OrigNumFrames
200.000000	200.000000	4	61	mm	200.000000	1271	1695
Frame#	Time	FHD			LBHD			C7			T10			CLAV			LSHO			LUUPA			LMUPA			LDUPA			LLEP			LMEP			LRAD			LUL			LRFIN			RSHO			RUPA1			RMUPA			RDUPA			RLEP			RMEP			RRAD			RUL			RUFIN			LASI			RASI			USACR			LSACR			RSACR			LTHI1			LTHI2			LTHI3			LTHI4			LLFC			LMFC			LTIB1			LTIB2			LTIB3			LTIB4			LLMAL			LMMAL			LHEE			LMT1			LMT2			LMT5			RTHI			RTHI2			RTHI3			RTHI4			RLFC			RMFC			RTIB1			RTIB2			RTIB3			RTIB4			RLMAL			RMMAL			RHEE			RMT1			RMT2			RMT5			RBHD			
		X1	Y1	Z1	X2	Y2	Z2	X3	Y3	Z3	X4	Y4	Z4	X5	Y5	Z5	X6	Y6	Z6	X7	Y7	Z7	X8	Y8	Z8	X9	Y9	Z9	X10	Y10	Z10	X11	Y11	Z11	X12	Y12	Z12	X13	Y13	Z13	X14	Y14	Z14	X15	Y15	Z15	X16	Y16	Z16	X17	Y17	Z17	X18	Y18	Z18	X19	Y19	Z19	X20	Y20	Z20	X21	Y21	Z21	X22	Y22	Z22	X23	Y23	Z23	X24	Y24	Z24	X25	Y25	Z25	X26	Y26	Z26	X27	Y27	Z27	X28	Y28	Z28	X29	Y29	Z29	X30	Y30	Z30	X31	Y31	Z31	X32	Y32	Z32	X33	Y33	Z33	X34	Y34	Z34	X35	Y35	Z35	X36	Y36	Z36	X37	Y37	Z37	X38	Y38	Z38	X39	Y39	Z39	X40	Y40	Z40	X41	Y41	Z41	X42	Y42	Z42	X43	Y43	Z43	X44	Y44	Z44	X45	Y45	Z45	X46	Y46	Z46	X47	Y47	Z47	X48	Y48	Z48	X49	Y49	Z49	X50	Y50	Z50	X51	Y51	Z51	X52	Y52	Z52	X53	Y53	Z53	X54	Y54	Z54	X55	Y55	Z55	X56	Y56	Z56	X57	Y57	Z57	X58	Y58	Z58	X59	Y59	Z59	X60	Y60	Z60	X61	Y61	Z61	

1272	6.355	-379.4481201171876	1636.544799804688	-876.6348266601565	-541.1045532226564	1539.444580078125	-944.449645996094	-574.8773803710939	1424.093627929688	-882.7175292968752	-615.8518066406251	1097.411499023438	-876.385681152344	-425.5887145996095	1363.502319335938	-876.3225097656252	-450.4104919433595	1404.549438476563	-1033.852783203125	-492.0766906738282	1254.158813476563	-1202.054931640625	-464.887420654297	1213.663696289063	-1187.327270507813	-492.5985717773439	1193.4345703125	-1237.513305664063	-497.9740295410157	1107.683837890625	-1260.759765625	-582.3771362304689	1111.730712890625	-1224.30126953125	-524.4833984375001	918.986511230469	-1099.197998046875	-484.6664428710939	879.024841308594	-1149.958740234375	-478.888153076172	905.905700683594	-1059.049072265625	-463.603729248047	1399.59228515625	-716.9303588867189	-510.2522583007814	1251.466796875	-555.3535156250001	-483.5847778320314	1209.56884765625	-564.0537109375001	-518.1616210937501	1191.490112304688	-517.8678588867189	-521.2666015625001	1121.407836914063	-493.7761230468751	-599.2861328125001	1100.4638671875	-520.2086181640626	-456.0917358398439	896.6353149414065	-611.3977050781251	-501.4802856445314	922.910583496094	-667.0531616210939	-445.1275634765626	917.718933105469	-708.5338134765626	-465.9393920898439	905.8450317382815	-1011.531494140625	-451.4521484375001	923.5681152343752	-757.6293945312501	-613.6109619140626	992.7899169921877	-879.449401855469	-623.0115356445314	959.7910156250002	-905.3828735351565	-620.2607421875001	963.0234375000002	-848.3142089843752	-486.4208984375001	689.2217407226564	-1101.617797851563	-438.3059387207032	622.3817749023439	-1117.962646484375	-392.8760070800782	636.9095458984376	-1105.893676757813	-450.4263916015626	562.7472534179689	-1114.407958984375	-428.6751403808595	461.7526245117189	-1118.574951171875	-374.5398864746094	441.2539672851564	-1007.072937011719	-394.8450012207032	329.3072814941407	-1096.080078125	-469.7818603515626	306.9308776855469	-1137.7177734375	-432.148406982422	290.6125488281251	-1122.578369140625	-455.0213623046876	215.3103942871094	-1094.59130859375	-568.6137695312501	94.69828033447267	-1104.714599609375	-522.0105590820314	102.1711807250977	-1026.302001953125	-612.1871337890626	46.6739730834961	-1051.157836914063	-401.8740539550782	66.65538024902345	-1078.768676757813	-412.9698486328126	71.32386779785158	-1126.500244140625	-460.4069213867189	47.98676300048829	-1167.767944335938	-485.2366027832032	731.6144409179689	-673.9476928710939	-435.0052490234376	689.5656127929689	-672.4638671875001	-405.9291076660157	701.8644409179689	-683.4775390625001	-441.1687316894532	604.3483886718751	-672.8579101562501	-420.100311279297	454.2493896484376	-694.5234375000001	-379.9418945312501	442.983612060547	-812.7168579101565	-399.5149841308595	302.4186401367188	-754.7774658203126	-472.4060668945314	241.8573303222657	-699.0053710937501	-439.0342712402345	227.9212036132813	-729.4354248046876	-458.4324645996095	188.4243316650391	-769.0324707031252	-559.7456054687501	87.45393371582033	-732.6780395507814	-517.0308837890626	105.6480102539063	-812.080261230469	-603.0761108398439	47.28620910644532	-795.9128417968752	-396.6934204101564	63.81848526000978	-756.0147705078126	-408.7667541503907	64.69825744628908	-715.8702392578126	-451.6240234375001	37.73078918457032	-671.3301391601564	-497.884246826172	1572.310302734375	-792.4634399414065	
1273	6.36	-379.6437377929688	1637.03564453125	-876.9527587890627	-542.3008422851564	1540.940795898438	-945.0137329101565	-575.5541992187501	1425.19287109375	-882.9594726562502	-616.5999755859376	1098.440063476563	-876.9873657226565	-426.869354248047	1364.84619140625	-877.1431884765627	-451.9769592285157	1406.018310546875	-1034.617919921875	-493.2203063964845	1255.750122070313	-1202.327758789063	-465.790740966797	1215.46875	-1187.905517578125	-493.8852844238282	1195.273315429688	-1237.988891601563	-499.1340942382814	1109.39453125	-1261.3671875	-583.0926513671876	1113.3017578125	-1224.449462890625	-525.1627197265626	920.3391113281252	-1099.453125	-485.1071777343751	880.5232543945315	-1150.217529296875	-479.6648254394532	907.296081542969	-1059.217529296875	-464.4061584472657	1400.717651367188	-717.3436889648439	-511.2672119140626	1252.572509765625	-555.9998168945314	-484.4478149414064	1210.823364257813	-564.4276123046876	-519.0568237304689	1192.688354492188	-518.3319091796876	-522.0795898437501	1122.487060546875	-494.2848510742189	-600.1264648437501	1101.4736328125	-521.1503295898439	-456.521942138672	897.753356933594	-611.9661865234376	-501.9879150390626	923.9666137695315	-667.5514526367189	-445.6049194335939	918.8950195312502	-709.1862792968751	-465.9414672851564	906.6375732421877	-1011.764892578125	-451.860076904297	924.6309814453127	-758.0857543945314	-614.2522583007814	993.7615966796877	-879.8043212890627	-623.6936035156251	960.677917480469	-905.7592773437502	-620.8509521484376	963.8643798828127	-848.661804199219	-486.847137451172	690.1375732421876	-1102.271728515625	-438.8768005371095	623.2125854492189	-1118.546508789063	-393.3103027343751	637.4904785156251	-1105.96044921875	-451.0584106445314	563.6370239257814	-1115.404174804688	-430.1773376464845	462.3508911132814	-1119.090698242188	-375.6547851562501	441.9530334472657	-1007.650329589844	-395.9798278808595	330.0660705566407	-1096.3876953125	-471.0652160644532	307.6743164062501	-1137.862060546875	-432.6569824218751	291.3437194824219	-1122.50244140625	-455.444793701172	215.8322906494141	-1094.476318359375	-569.1447143554689	94.91028594970705	-1104.636474609375	-522.4080200195314	102.5283889770508	-1026.344360351563	-612.3848876953126	46.64387512207032	-1051.055297851563	-402.2008666992189	67.3169403076172	-1079.0439453125	-413.513885498047	71.95923614501955	-1126.792724609375	-460.8620605468751	48.49540328979494	-1167.915283203125	-485.8957519531251	732.5065917968751	-674.4119262695314	-435.6782531738282	690.3203735351564	-672.9154052734376	-406.5869445800782	702.5737915039064	-683.9766235351564	-442.2054443359376	605.1543579101564	-673.3099975585939	-421.6305236816407	454.9471740722657	-695.0140380859376	-382.2102355957032	443.6541137695314	-813.2258300781252	-400.4877014160157	302.8820190429688	-754.8713989257814	-473.1838378906251	242.1144256591797	-699.0732421875001	-439.7488098144532	228.4899139404297	-729.5102539062501	-459.0913391113282	188.7487182617188	-769.1270141601565	-559.9553222656251	87.47642517089845	-732.5800781250001	-517.3085327148439	105.7291564941407	-811.979675292969	-603.1889648437501	47.19912338256837	-795.8332519531252	-396.868865966797	64.26987457275392	-756.0838623046876	-408.8980102539064	65.08813476562501	-715.8656616210939	-451.7211914062501	37.81073379516602	-671.4238281250001	-498.6300048828126	1573.061645507813	-792.9974365234377	
1274	6.365	-380.3302612304688	1637.704345703125	-877.5341796875002	-542.9116821289064	1541.939453125	-945.3848266601565	-576.2692871093751	1425.832153320313	-883.247497558594	-617.2962646484376	1099.552734375	-877.521423339844	-427.7889099121095	1365.92578125	-877.684753417969	-452.1990966796876	1407.129150390625	-1034.567504882813	-494.2686462402345	1257.26953125	-1202.666015625	-466.8896484375001	1217.1923828125	-1188.5888671875	-494.8348693847657	1196.854248046875	-1238.447875976563	-499.7789001464845	1110.780029296875	-1261.774536132813	-583.9959716796876	1114.609375	-1224.693237304688	-525.5809936523439	921.7553710937502	-1099.7333984375	-485.749969482422	881.9607543945315	-1150.661865234375	-480.4039611816407	908.6531372070315	-1059.472045898438	-465.3119506835939	1401.84228515625	-717.8687133789064	-512.2643432617189	1253.686889648438	-556.3571166992189	-485.4080810546876	1211.930419921875	-564.9093017578126	-520.2119140625001	1193.712036132813	-518.9145507812501	-522.9057006835939	1123.615234375	-494.8384399414064	-600.8679199218751	1102.603271484375	-521.8779296875001	-457.1111450195314	898.719665527344	-612.6292114257814	-502.5462646484376	925.0574340820315	-668.1619262695314	-446.0260009765626	919.930847167969	-709.7794189453126	-466.7367553710939	908.0345458984377	-1012.223083496094	-452.4647216796876	925.5759887695315	-758.6711425781251	-614.7037963867189	994.7117919921877	-880.2003173828127	-624.2871093750001	961.5036621093752	-906.1647949218752	-621.3532104492189	964.759948730469	-849.0393066406252	-487.3061523437501	691.0323486328126	-1102.828979492188	-440.2405090332032	624.6188964843751	-1119.465087890625	-393.8306274414064	638.3005981445314	-1106.356079101563	-451.5952453613282	564.6100463867189	-1116.2685546875	-431.8393554687501	462.9262695312501	-1119.65869140625	-377.1747131347657	442.790985107422	-1007.683227539063	-397.6423645019532	330.8467712402344	-1097.311401367188	-472.3675231933595	308.3107604980469	-1138.129638671875	-434.4592285156251	292.2031250000001	-1123.288940429688	-456.4629821777345	216.4533843994141	-1094.858764648438	-569.5222778320314	95.05310058593751	-1104.6201171875	-522.7723999023439	102.8908920288086	-1026.40966796875	-612.6719360351564	46.57321548461915	-1050.933227539063	-402.658905029297	68.14300537109376	-1079.392211914063	-414.2029418945314	72.73670196533205	-1127.234375	-461.4140625000001	49.0346145629883	-1168.137451171875	-486.619842529297	733.3885498046876	-674.9830322265626	-436.4549255371095	691.1335449218751	-673.1094970703126	-407.446502685547	703.2081909179689	-684.4717407226564	-443.2550659179689	605.9051513671876	-673.6459960937501	-423.1289978027345	455.6064758300782	-695.4339599609376	-385.8522338867189	444.504119873047	-814.137390136719	-401.5079345703126	303.4151306152344	-755.0776367187501	-473.9837341308595	242.4730224609376	-699.1322021484376	-440.4718017578126	228.9402618408204	-729.6555175781251	-459.6583251953126	189.0376739501953	-769.1939697265627	-560.2048950195314	87.47065734863283	-732.4948120117189	-517.6337890625001	105.8497085571289	-811.9664306640627	-603.3430175781251	47.10044860839844	-795.7470703125002	-397.0218811035157	64.82112121582033	-756.0516967773439	-408.984100341797	65.38962554931642	-715.7855224609376	-451.8001098632814	37.94407272338868	-671.5223999023439	-498.9738769531251	1574.282958984375	-793.3394775390627	
1275	6.37	-380.8411865234376	1638.272216796875	-877.9796142578127	-543.4227294921876	1542.43994140625	-945.5938720703127	-577.0856323242189	1426.616577148438	-883.605163574219	-618.1182250976564	1100.41455078125	-878.0133056640627	-427.9230041503907	1366.722412109375	-877.8146972656252	-453.2083435058595	1408.507202148438	-1035.1142578125	-495.5345458984376	1258.703491210938	-1203.07861328125	-467.702606201172	1218.763061523438	-1189.295776367188	-495.8252868652345	1198.327270507813	-1238.98291015625	-500.561492919922	1112.224609375	-1262.298950195313	-584.6269531250001	1116.005249023438	-1224.973388671875	-526.2326049804689	922.9562988281252	-1100.086791992188	-486.1897583007814	883.473815917969	-1150.924682617188	-480.967498779297	909.911804199219	-1059.653564453125	-466.1207275390626	1402.81005859375	-718.4174194335939	-513.2261352539064	1254.677490234375	-556.9827270507814	-486.180389404297	1213.133422851563	-565.2824096679689	-521.2863159179689	1194.78857421875	-519.4866333007814	-523.7192382812501	1124.6103515625	-495.3440856933595	-601.4677734375001	1103.576904296875	-522.5997314453126	-457.543670654297	899.7869262695315	-613.3842773437501	-502.8916320800782	926.031188964844	-668.7327880859376	-446.5939331054689	920.9718017578127	-710.4945068359376	-467.6292419433595	909.0012207031252	-1012.789978027344	-453.3319702148439	926.469665527344	-759.4274902343751	-615.3705444335939	995.5910644531252	-880.6253662109377	-624.8767089843751	962.3513793945315	-906.5389404296877	-621.9926757812501	965.7052001953127	-849.4210205078127	-488.5899047851564	692.2313232421876	-1103.5556640625	-439.8336791992189	625.1221313476564	-1119.792846679688	-394.4874877929689	639.0693969726564	-1106.714111328125	-452.3712158203126	565.6318359375001	-1116.958740234375	-433.2525634765626	463.7132568359376	-1120.094970703125	-379.0784301757813	443.9106750488282	-1007.561096191406	-398.8797302246095	331.5696716308594	-1097.91552734375	-473.7404174804689	309.0077209472657	-1138.337158203125	-435.7816467285157	292.8510742187501	-1123.953247070313	-457.3252868652345	216.9956970214844	-1095.091064453125	-570.0859375000001	95.15608978271486	-1104.600341796875	-523.1536254882814	103.1899642944336	-1026.521850585938	-612.8818969726564	46.4784278869629	-1050.79150390625	-403.0310058593751	68.90641021728517	-1079.806396484375	-414.6743469238282	73.4657440185547	-1127.55810546875	-461.8882446289064	49.45710754394533	-1168.39794921875	-487.4277343750001	734.2294921875001	-675.2708740234376	-437.4331054687501	691.7084350585939	-673.8175048828126	-408.3183593750001	703.8018798828126	-684.9950561523439	-444.2960510253907	606.6499023437501	-674.1054687500001	-424.5487365722657	456.3064575195314	-695.7474365234376	-387.3710937500001	444.7399291992189	-814.412292480469	-402.4336547851564	304.0381774902344	-755.2586669921876	-474.6604919433595	242.9185791015626	-699.2227783203126	-441.6489868164064	229.4307250976563	-729.9505615234376	-459.8482055664064	189.2781372070313	-768.9196777343752	-560.4838867187501	87.45301055908205	-732.4715576171876	-517.9816284179689	106.1420059204102	-811.9062500000002	-603.4442138671876	47.07073593139649	-795.6931152343752	-397.0510253906251	65.26891326904298	-756.0455322265626	-409.1702880859376	65.72714233398439	-715.8063354492189	-451.9678344726564	38.06387329101563	-671.5446166992189	-499.7442626953126	1574.99755859375	-793.7301025390627	
